<?xml version="1.0" encoding="utf-8"?>
<svg id="master-artboard" viewBox="0 0 325.3021545410156 319.7434387207031" version="1.1" xmlns="http://www.w3.org/2000/svg" x="0px" y="0px" style="enable-background:new 0 0 550 385;" width="325.3021545410156px" height="319.7434387207031px"><rect id="ee-background" x="0" y="0" width="325.3021545410156" height="319.7434387207031" style="fill: white; fill-opacity: 0; pointer-events: none;"/>

<radialGradient id="color_1_" cx="275" cy="192.5" r="506.0008" gradientUnits="userSpaceOnUse">
		<stop offset="0" style="stop-color:#FAFAFB"/>
		<stop offset="0.4208" style="stop-color:#F7F7F9"/>
		<stop offset="0.7611" style="stop-color:#EDEEF1"/>
		<stop offset="1" style="stop-color:#E0E3E8"/>
	</radialGradient>
<g transform="matrix(1, 0, 0, 1, -116.3854022026062, -32.964653015136726)">
		
		<g id="clock_1_">
			<g>
				<path d="M 415 192.5 A 140 140 0 0 1 275 332.5 A 140 140 0 0 1 135 192.5 A 140 140 0 0 1 275 52.5 A 140 140 0 0 1 415 192.5 Z" class="st2" style="fill: rgb(255, 255, 255);"/>
				<path class="st3" d="M275,339c-80.8,0-146.5-65.7-146.5-146.5S194.2,46,275,46s146.5,65.7,146.5,146.5S355.8,339,275,339&#10;&#9;&#9;&#9;&#9;&#9;L275,339z M275,59c-73.6,0-133.5,59.9-133.5,133.5S201.4,326,275,326s133.5-59.9,133.5-133.5S348.6,59,275,59L275,59z" style="fill: rgb(187, 193, 201);"/>
			</g>
			<path class="st4" d="M414.3,178.9C407.5,108,347.7,52.5,275,52.5c-72.7,0-132.5,55.5-139.3,126.4c-0.4,4.5-0.7,9-0.7,13.6&#10;&#9;&#9;&#9;&#9;c0,77.3,62.7,140,140,140s140-62.7,140-140C415,187.9,414.8,183.4,414.3,178.9z M275,327.6c-74.5,0-135.1-60.6-135.1-135.1&#10;&#9;&#9;&#9;&#9;c0-3.6,0.2-7.2,0.5-10.7c5.5-69.5,63.7-124.4,134.6-124.4s129.1,54.9,134.6,124.4c0.3,3.5,0.5,7.1,0.5,10.7&#10;&#9;&#9;&#9;&#9;C410.1,267,349.5,327.6,275,327.6z" style="fill: rgb(214, 218, 225);"/>
			<g>
				<path d="M 273.899994 64.900002 H 276.099994 V 78.100001 H 273.899994 V 64.900002 Z" class="st5" style="fill: rgb(34, 37, 42);"/>
				
					<path d="M 261.299988 65.599998 H 263.499988 V 78.799998 H 261.299988 V 65.599998 Z" transform="matrix(-0.9945 0.105 -0.105 -0.9945 530.8358 116.3989)" class="st5" style="fill: rgb(34, 37, 42);"/>
				<path d="M 250.10000610351562 80.80000305175781 L 252.3000030517578 80.4000015258789 L 249.60000610351562 67.5 L 247.39999389648438 67.9000015258789 Z" class="st5" style="fill: rgb(34, 37, 42);"/>
				<path d="M 238.60000610351562 84 L 240.6999969482422 83.4000015258789 L 236.60000610351562 70.80000305175781 L 234.5 71.5 Z" class="st5" style="fill: rgb(34, 37, 42);"/>
				
					<path d="M 224.699997 75.400002 H 226.899997 V 88.600001 H 224.699997 V 75.400002 Z" transform="matrix(-0.9137 0.4065 -0.4065 -0.9137 465.406 65.08)" class="st5" style="fill: rgb(34, 37, 42);"/>
				
					<path d="M 213.399994 81.099998 H 215.599994 V 94.299998 H 213.399994 V 81.099998 Z" transform="matrix(-0.8664 0.4994 -0.4994 -0.8664 444.1561 56.5853)" class="st5" style="fill: rgb(34, 37, 42);"/>
				
					<path d="M 202.800003 88 H 205.000003 V 101.2 H 202.800003 V 88 Z" transform="matrix(-0.809 0.5878 -0.5878 -0.809 424.4462 51.3149)" class="st5" style="fill: rgb(34, 37, 42);"/>
				
					<path d="M 192.899994 96 H 195.099994 V 109.2 H 192.899994 V 96 Z" transform="matrix(-0.7425 0.6699 -0.6699 -0.7425 406.8392 48.7707)" class="st5" style="fill: rgb(34, 37, 42);"/>
				<path d="M 189.3000030517578 116.80000305175781 L 190.6999969482422 115.0999984741211 L 180.89999389648438 106.30000305175781 L 179.5 107.9000015258789 Z" class="st5" style="fill: rgb(34, 37, 42);"/>
				<path d="M 181.8000030517578 126.0999984741211 L 183.10000610351562 124.4000015258789 L 172.39999389648438 116.5999984741211 L 171.10000610351562 118.4000015258789 Z" class="st5" style="fill: rgb(34, 37, 42);"/>
				<path d="M 175.39999389648438 136.1999969482422 L 176.5 134.3000030517578 L 165.10000610351562 127.80000305175781 L 164 129.6999969482422 Z" class="st5" style="fill: rgb(34, 37, 42);"/>
				<path d="M 170 147 L 170.89999389648438 145 L 158.89999389648438 139.60000610351562 L 158 141.60000610351562 Z" class="st5" style="fill: rgb(34, 37, 42);"/>
				<path d="M 165.89999389648438 158.1999969482422 L 166.5 156.10000610351562 L 154 152 L 153.3000030517578 154.10000610351562 Z" class="st5" style="fill: rgb(34, 37, 42);"/>
				<path d="M 162.89999389648438 169.8000030517578 L 163.3000030517578 167.60000610351562 L 150.39999389648438 164.89999389648438 L 150 167 Z" class="st5" style="fill: rgb(34, 37, 42);"/>
				<path d="M 161.10000610351562 181.60000610351562 L 161.3000030517578 179.39999389648438 L 148.1999969482422 178.10000610351562 L 148 180.3000030517578 Z" class="st5" style="fill: rgb(34, 37, 42);"/>
				<path d="M 160.60000610351562 193.60000610351562 L 160.60000610351562 191.39999389648438 L 147.39999389648438 191.39999389648438 L 147.39999389648438 193.60000610351562 Z" class="st5" style="fill: rgb(34, 37, 42);"/>
				<path d="M 161.39999389648438 205.5 L 161.10000610351562 203.39999389648438 L 148 204.6999969482422 L 148.1999969482422 206.89999389648438 Z" class="st5" style="fill: rgb(34, 37, 42);"/>
				<path d="M 163.3000030517578 217.3000030517578 L 162.89999389648438 215.1999969482422 L 150 217.89999389648438 L 150.39999389648438 220.10000610351562 Z" class="st5" style="fill: rgb(34, 37, 42);"/>
				<path d="M 166.5 228.89999389648438 L 165.89999389648438 226.8000030517578 L 153.3000030517578 230.89999389648438 L 154 233 Z" class="st5" style="fill: rgb(34, 37, 42);"/>
				<path d="M 170.89999389648438 240 L 170 238 L 158 243.39999389648438 L 158.89999389648438 245.39999389648438 Z" class="st5" style="fill: rgb(34, 37, 42);"/>
				<path d="M 176.5 250.60000610351562 L 175.39999389648438 248.6999969482422 L 164 255.3000030517578 L 165.10000610351562 257.20001220703125 Z" class="st5" style="fill: rgb(34, 37, 42);"/>
				<path d="M 183.10000610351562 260.6000061035156 L 181.8000030517578 258.8999938964844 L 171.10000610351562 266.6000061035156 L 172.39999389648438 268.3999938964844 Z" class="st5" style="fill: rgb(34, 37, 42);"/>
				<path d="M 190.6999969482422 269.79998779296875 L 189.1999969482422 268.20001220703125 L 179.5 277.1000061035156 L 180.89999389648438 278.70001220703125 Z" class="st5" style="fill: rgb(34, 37, 42);"/>
				<path d="M 199.3000030517578 278.20001220703125 L 197.60000610351562 276.79998779296875 L 188.8000030517578 286.6000061035156 L 190.5 288 Z" class="st5" style="fill: rgb(34, 37, 42);"/>
				<path d="M 208.60000610351562 285.70001220703125 L 206.89999389648438 284.3999938964844 L 199.10000610351562 295.1000061035156 L 200.89999389648438 296.29998779296875 Z" class="st5" style="fill: rgb(34, 37, 42);"/>
				<path d="M 218.6999969482422 292.1000061035156 L 216.8000030517578 291 L 210.3000030517578 302.3999938964844 L 212.1999969482422 303.5 Z" class="st5" style="fill: rgb(34, 37, 42);"/>
				<path d="M 229.5 297.3999938964844 L 227.5 296.6000061035156 L 222.10000610351562 308.6000061035156 L 224.10000610351562 309.5 Z" class="st5" style="fill: rgb(34, 37, 42);"/>
				<path d="M 240.6999969482422 301.6000061035156 L 238.60000610351562 301 L 234.5 313.5 L 236.60000610351562 314.20001220703125 Z" class="st5" style="fill: rgb(34, 37, 42);"/>
				<path d="M 252.3000030517578 304.6000061035156 L 250.10000610351562 304.20001220703125 L 247.39999389648438 317.1000061035156 L 249.5 317.5 Z" class="st5" style="fill: rgb(34, 37, 42);"/>
				<path d="M 264.1000061035156 306.3999938964844 L 261.8999938964844 306.20001220703125 L 260.6000061035156 319.29998779296875 L 262.70001220703125 319.5 Z" class="st5" style="fill: rgb(34, 37, 42);"/>
				<path d="M 276.1000061035156 306.8999938964844 L 273.8999938964844 306.8999938964844 L 273.8999938964844 320.1000061035156 L 276.1000061035156 320.1000061035156 Z" class="st5" style="fill: rgb(34, 37, 42);"/>
				<path d="M 288 306.20001220703125 L 285.8999938964844 306.3999938964844 L 287.20001220703125 319.5 L 289.3999938964844 319.29998779296875 Z" class="st5" style="fill: rgb(34, 37, 42);"/>
				<path d="M 299.79998779296875 304.20001220703125 L 297.70001220703125 304.6000061035156 L 300.5 317.5 L 302.6000061035156 317.1000061035156 Z" class="st5" style="fill: rgb(34, 37, 42);"/>
				<path d="M 311.3999938964844 301 L 309.29998779296875 301.6000061035156 L 313.3999938964844 314.20001220703125 L 315.5 313.5 Z" class="st5" style="fill: rgb(34, 37, 42);"/>
				<path d="M 322.5 296.6000061035156 L 320.5 297.5 L 325.8999938964844 309.5 L 327.8999938964844 308.6000061035156 Z" class="st5" style="fill: rgb(34, 37, 42);"/>
				<path d="M 333.1000061035156 291 L 331.20001220703125 292.1000061035156 L 337.79998779296875 303.5 L 339.70001220703125 302.3999938964844 Z" class="st5" style="fill: rgb(34, 37, 42);"/>
				<path d="M 343.1000061035156 284.3999938964844 L 341.29998779296875 285.70001220703125 L 349.1000061035156 296.3999938964844 L 350.8999938964844 295.1000061035156 Z" class="st5" style="fill: rgb(34, 37, 42);"/>
				<path d="M 352.3999938964844 276.79998779296875 L 350.70001220703125 278.29998779296875 L 359.6000061035156 288 L 361.20001220703125 286.6000061035156 Z" class="st5" style="fill: rgb(34, 37, 42);"/>
				<path d="M 360.70001220703125 268.20001220703125 L 359.29998779296875 269.8999938964844 L 369.1000061035156 278.70001220703125 L 370.5 277.1000061035156 Z" class="st5" style="fill: rgb(34, 37, 42);"/>
				<path d="M 368.20001220703125 258.8999938964844 L 366.8999938964844 260.6000061035156 L 377.6000061035156 268.3999938964844 L 378.8999938964844 266.6000061035156 Z" class="st5" style="fill: rgb(34, 37, 42);"/>
				<path d="M 374.6000061035156 248.8000030517578 L 373.5 250.6999969482422 L 384.8999938964844 257.20001220703125 L 386 255.3000030517578 Z" class="st5" style="fill: rgb(34, 37, 42);"/>
				<path d="M 380 238 L 379.1000061035156 240 L 391.1000061035156 245.39999389648438 L 392 243.39999389648438 Z" class="st5" style="fill: rgb(34, 37, 42);"/>
				<path d="M 384.1000061035156 226.8000030517578 L 383.5 228.89999389648438 L 396 233 L 396.70001220703125 230.89999389648438 Z" class="st5" style="fill: rgb(34, 37, 42);"/>
				<path d="M 387.1000061035156 215.1999969482422 L 386.70001220703125 217.39999389648438 L 399.6000061035156 220.10000610351562 L 400 218 Z" class="st5" style="fill: rgb(34, 37, 42);"/>
				<path d="M 388.8999938964844 203.39999389648438 L 388.6000061035156 205.60000610351562 L 401.79998779296875 206.89999389648438 L 402 204.8000030517578 Z" class="st5" style="fill: rgb(34, 37, 42);"/>
				<path d="M 389.3999938964844 191.39999389648438 L 389.3999938964844 193.60000610351562 L 402.6000061035156 193.60000610351562 L 402.6000061035156 191.39999389648438 Z" class="st5" style="fill: rgb(34, 37, 42);"/>
				<path d="M 388.70001220703125 179.5 L 388.8999938964844 181.60000610351562 L 402 180.3000030517578 L 401.79998779296875 178.10000610351562 Z" class="st5" style="fill: rgb(34, 37, 42);"/>
				<path d="M 386.70001220703125 167.6999969482422 L 387.1000061035156 169.8000030517578 L 400 167 L 399.6000061035156 164.89999389648438 Z" class="st5" style="fill: rgb(34, 37, 42);"/>
				<path d="M 383.5 156.10000610351562 L 384.1000061035156 158.1999969482422 L 396.70001220703125 154.10000610351562 L 396 152 Z" class="st5" style="fill: rgb(34, 37, 42);"/>
				<path d="M 379.1000061035156 145 L 380 147 L 392 141.60000610351562 L 391.1000061035156 139.60000610351562 Z" class="st5" style="fill: rgb(34, 37, 42);"/>
				<path d="M 373.5 134.39999389648438 L 374.6000061035156 136.3000030517578 L 386 129.6999969482422 L 384.8999938964844 127.80000305175781 Z" class="st5" style="fill: rgb(34, 37, 42);"/>
				<path d="M 366.8999938964844 124.4000015258789 L 368.20001220703125 126.19999694824219 L 378.8999938964844 118.4000015258789 L 377.6000061035156 116.5999984741211 Z" class="st5" style="fill: rgb(34, 37, 42);"/>
				<path d="M 359.29998779296875 115.0999984741211 L 360.79998779296875 116.80000305175781 L 370.6000061035156 107.9000015258789 L 369.1000061035156 106.30000305175781 Z" class="st5" style="fill: rgb(34, 37, 42);"/>
				<path d="M 350.70001220703125 106.80000305175781 L 352.3999938964844 108.19999694824219 L 361.20001220703125 98.4000015258789 L 359.6000061035156 97 Z" class="st5" style="fill: rgb(34, 37, 42);"/>
				<path d="M 341.3999938964844 99.30000305175781 L 343.1000061035156 100.5999984741211 L 350.8999938964844 89.9000015258789 L 349.1000061035156 88.5999984741211 Z" class="st5" style="fill: rgb(34, 37, 42);"/>
				<path d="M 331.29998779296875 92.9000015258789 L 333.20001220703125 94 L 339.79998779296875 82.5999984741211 L 337.8999938964844 81.5 Z" class="st5" style="fill: rgb(34, 37, 42);"/>
				<path d="M 320.5 87.5 L 322.5 88.4000015258789 L 327.8999938964844 76.4000015258789 L 325.8999938964844 75.5 Z" class="st5" style="fill: rgb(34, 37, 42);"/>
				<path d="M 309.29998779296875 83.4000015258789 L 311.3999938964844 84 L 315.5 71.5 L 313.3999938964844 70.80000305175781 Z" class="st5" style="fill: rgb(34, 37, 42);"/>
				<path d="M 297.70001220703125 80.4000015258789 L 299.8999938964844 80.80000305175781 L 302.6000061035156 67.9000015258789 L 300.5 67.5 Z" class="st5" style="fill: rgb(34, 37, 42);"/>
				<path d="M 285.8999938964844 78.5999984741211 L 288.1000061035156 78.80000305175781 L 289.3999938964844 65.69999694824219 L 287.29998779296875 65.5 Z" class="st5" style="fill: rgb(34, 37, 42);"/>
				<path d="M 271.200012 64.900002 H 278.900012 V 88.600002 H 271.200012 V 64.900002 Z" class="st5" style="fill: rgb(34, 37, 42);"/>
				
					<path d="M 213.399994 80.400002 H 221.099994 V 104.100002 H 213.399994 V 80.400002 Z" transform="matrix(0.8661 -0.4998 0.4998 0.8661 -17.0333 120.908)" class="st5" style="fill: rgb(34, 37, 42);"/>
				
					<path d="M 171 122.699997 H 178.7 V 146.399998 H 171 V 122.699997 Z" transform="matrix(0.5002 -0.8659 0.8659 0.5002 -29.1582 218.6425)" class="st5" style="fill: rgb(34, 37, 42);"/>
				<path d="M 171.10000610351562 188.60000610351562 L 171.10000610351562 196.3000030517578 L 147.39999389648438 196.3000030517578 L 147.39999389648438 188.60000610351562 Z" class="st5" style="fill: rgb(34, 37, 42);"/>
				
					<path d="M 170.899994 238.399994 H 178.599994 V 262.099995 H 170.899994 V 238.399994 Z" transform="matrix(-0.5002 -0.8659 0.8659 -0.5002 45.4267 526.8172)" class="st5" style="fill: rgb(34, 37, 42);"/>
				<path d="M 219.6999969482422 280.5 L 226.3000030517578 284.29998779296875 L 214.5 304.8999938964844 L 207.8000030517578 301 Z" class="st5" style="fill: rgb(34, 37, 42);"/>
				<path d="M 271.100006 296.399994 H 278.800006 V 320.099995 H 271.100006 V 296.399994 Z" class="st5" style="fill: rgb(34, 37, 42);"/>
				<path d="M 323.5 284.3999938964844 L 330.20001220703125 280.6000061035156 L 342.1000061035156 301.1000061035156 L 335.3999938964844 304.8999938964844 Z" class="st5" style="fill: rgb(34, 37, 42);"/>
				<path d="M 363 247.8000030517578 L 366.79998779296875 241.1999969482422 L 387.3999938964844 253 L 383.5 259.70001220703125 Z" class="st5" style="fill: rgb(34, 37, 42);"/>
				<path d="M 378.8999938964844 196.39999389648438 L 378.8999938964844 188.6999969482422 L 402.6000061035156 188.6999969482422 L 402.6000061035156 196.39999389648438 Z" class="st5" style="fill: rgb(34, 37, 42);"/>
				<path d="M 366.8999938964844 144 L 363.1000061035156 137.3000030517578 L 383.6000061035156 125.4000015258789 L 387.3999938964844 132.10000610351562 Z" class="st5" style="fill: rgb(34, 37, 42);"/>
				<path d="M 330.29998779296875 104.5 L 323.70001220703125 100.69999694824219 L 335.5 80.0999984741211 L 342.20001220703125 84 Z" class="st5" style="fill: rgb(34, 37, 42);"/>
			</g>
			<g>
				<g class="st6" style="opacity: 0.3;">
					
						<path d="M 214.199997 173.199997 H 287.5 V 183.099997 H 214.199997 V 173.199997 Z" transform="matrix(-0.853 -0.5218 0.5218 -0.853 371.8707 461.0449)" class="st7" style="fill: rgb(170, 178, 188);"/>
					
						<path d="M 316.700012 121.699997 H 320.000012 V 221.899994 H 316.700012 V 121.699997 Z" transform="matrix(-0.5228 -0.8525 0.8525 -0.5228 338.402 533.0048)" class="st7" style="fill: rgb(170, 178, 188);"/>
					<path class="st7" d="M275.8,199.9V290c-4.1,1.1-6.8,4.8-6.8,9.3c0,5.3,4.3,9.6,9.6,9.6c5.3,0,9.6-4.3,9.6-9.6&#10;&#9;&#9;&#9;&#9;&#9;&#9;c0-4.4-3.3-8.1-7.4-9.2v-90c2.7-1,4.7-3.6,4.6-6.7c0-3.1-2-5.6-4.7-6.6v-24.4l-4.9,0v24.4c-2.7,1-4.6,3.6-4.6,6.7&#10;&#9;&#9;&#9;&#9;&#9;&#9;C271.2,196.3,273.1,198.9,275.8,199.9z" style="fill: rgb(170, 178, 188);"/>
				</g>
				<g>
					
						<path d="M 210.800003 169.899994 H 284.100006 V 179.799994 H 210.800003 V 169.899994 Z" transform="matrix(-0.853 -0.5218 0.5218 -0.853 367.3982 453.0656)" class="st5" style="fill: rgb(34, 37, 42);"/>
					<path d="M 356.8999938964844 138.3000030517578 L 360.6000061035156 144.10000610351562 L 278.20001220703125 193.5 L 274.3999938964844 187.6999969482422 Z" class="st5" style="fill: rgb(34, 37, 42);"/>
					<path class="st8" d="M272.4,196.5v90.1c-4.1,1.1-6.8,4.8-6.8,9.3c0,5.3,4.3,9.6,9.6,9.6c5.3,0,9.6-4.3,9.6-9.6&#10;&#9;&#9;&#9;&#9;&#9;&#9;c0-4.4-3.4-8.1-7.5-9.2v-90c2.7-1,4.7-3.6,4.7-6.7c0-3.1-2-5.6-4.7-6.6v-24.4l-4.9,0l0,24.4c-2.7,1-4.6,3.6-4.6,6.7&#10;&#9;&#9;&#9;&#9;&#9;&#9;C267.8,193,269.7,195.5,272.4,196.5z" style="fill: rgb(239, 77, 77);"/>
				</g>
			</g>
		</g>
	</g>

</svg>